<?xml version="1.0" encoding="UTF-8" standalone="no"?>
<!-- Created with Inkscape (http://www.inkscape.org/) -->
<svg id="svg2" xmlns:rdf="http://www.w3.org/1999/02/22-rdf-syntax-ns#" xmlns="http://www.w3.org/2000/svg" height="106.32" width="184.59" version="1.1" xmlns:cc="http://creativecommons.org/ns#" xmlns:dc="http://purl.org/dc/elements/1.1/" viewBox="0 0 184.58897 106.31616">
	<metadata id="metadata7">
		<rdf:RDF>
			<cc:Work rdf:about="">
				<dc:format>image/svg+xml</dc:format>
				<dc:type rdf:resource="http://purl.org/dc/dcmitype/StillImage"/>
				<dc:title/>
			</cc:Work>
		</rdf:RDF>
	</metadata>
	<g id="layer1" transform="translate(-122.04 -967.08)">
		<g fill-opacity=".90196" fill="#cfe573">
			<path id="rect4278" d="m122.54 51.768h72.455v-37.047h27.287v-39.58c-113.21 0.60218-99.742-13.087-99.742 76.627zm22.672-67.912c0.43298-0.01014 0.87392-0.01093 1.3223 0 3.3109 0.08071 7.0301 0.7508 11.023 2.2207l-1.9375 4.8613c-1.1094-2.2648-4.0821-3.9192-7.6387-4.2578-5.098-0.4784-9.7686 1.8639-10.434 5.2305-0.66487 3.3665 3.3668 4.2676 8.0273 6.9609 17.142 7.2942 1.6472 23.594-21.627 14.514l2.1484-4.7734c1.4808 2.4476 4.8333 4.1921 8.7695 4.5664 6.0243 0.565 11.544-2.2033 12.33-6.1816 0.7849-3.9779-3.1358-4.5672-9.4844-8.2246-11.798-4.4154-5.9225-14.602 7.5-14.916zm57.443 0.38672c18.12 0.24929 29.251 26.28-9.6856 29.104l-1.6953 14.674h-5.6582l6.5273-40.953c3.5615-2.0333 7.1561-2.8704 10.512-2.8242zm-32.377 0.54102c5.1706-0.0103 9.8333 9.2616 7.6289 31.621l-4.5723 0.01953c1.4419-2.8574 2.0993-6.6436 2.084-10.334-0.0438-8.8126-3.3002-15.736-8.7773-15.713-5.4771 0.0228-5.531 7.3761-7.0586 15.152 0 0-1.9432 8.1082-0.47265 10.953l-4.33 0.017 3.14-31.301c2.0675-0.009 2.4496-0.0034 4.1621 0.01563 0.83766 0.0097-0.95983 3.6323 0.17969 3.6543 1.0998 0.0204 5.8008-3.5254 5.8008-3.5254 0.74088-0.36926 1.4899-0.55908 2.2285-0.56055zm12.654 12.016h4.0293l-2.3633 20.682h-4.0312zm12.592-7.3809-1.8691 18.916c29.5-1.8028 23.641-24.021 1.8691-18.916z" transform="translate(0 992.36)"/>
			<path id="rect4255" d="m198.2 1009.7v63.428l74.334-0.4122c36.662-0.2028 34.059-15.57 34.059-63.016h-108.39zm91.994 0.9492h5.0664l-4.1074 15.199h11.324l-2 4.75h-10.607l-10.609 39.264h-5.0664l10.609-39.264h-9.6582l2-4.75h8.9414l4.1074-15.199zm-20.979 0.5157h6.6504l-14 59.16c-2.8032 0.5067-6.5284-1.1443-2.6504-14l10-45.16zm-68.35 1.414h5.9648l2.3477 45.307 25.199-45.307h6.6172l-32 55.73h-4.1289l-4-55.73zm39.998 14.211c1.2717-0.048 2.5444 0.1124 3.7832 0.4765 7.5653 2.2234 12.254 11.401 10.473 20.498-1.7818 9.0971-9.3586 14.67-16.924 12.447-7.5661-2.2224-12.256-11.4-10.475-20.498 1.4493-7.4006 6.8249-12.687 13.143-12.924zm1.3516 2.9023c-4.0193 0.018-7.9094 4.9038-9.2148 11.572-1.4819 7.5674 0.86158 14.744 5.2344 16.029 4.3733 1.2857 9.1202-3.8084 10.602-11.377 1.4812-7.5666-0.86218-14.742-5.2344-16.027-0.45101-0.133-0.9143-0.199-1.3848-0.1973h-0.002z"/>
			<path id="rect4228" d="m122.34 1047h72.828v26.119c-21.319 0.394-19.673 0.4601-44.482-0.04-12.255-0.2473-28.346-3.1588-28.346-26.079z"/>
			<path id="rect4232" d="m225.42 967.55c19.327-0.30465 34.901-0.22785 47.322-0.25856 19.707-0.0487 33.941 5.8627 33.796 39.853h-81.118z"/>
		</g>
		<path id="rect4216" d="m276.08 981.6-6.7742-11.637-21.324 20.608-7.7279-9.7588-29.891 31.398 0.0285 0.1623 28.563-19.377 7.2017 8.982z" stroke="#fff" stroke-linecap="round" stroke-width=".96691" fill="#fc0"/>
		<path id="path4236" d="m138.13 1059.8 7.3025 10.462 18.534-21.12 8.0572 8.6145 25.784-31.976-0.0399-0.1506-25.465 20.521-7.4997-7.9216z" stroke-opacity=".98676" stroke="#fff" stroke-linecap="round" stroke-width=".91618" fill="#ffd42a"/>
		<g fill="#fffe57">
			<path id="path4343" d="m132.19 1006.2c-1.6943-0.1867-4.214-0.6667-5.9318-1.1302-1.5615-0.4213-3.8667-1.2018-4.044-1.3694-0.0628-0.059 0.33406-1.1102 0.88196-2.3353l0.99618-2.2274 0.55825 0.7063c0.67642 0.8557 2.127 1.9145 3.4358 2.508 5.2156 2.3648 12.426 1.3727 15.648-2.1533 1.6822-1.8406 2.0904-4.1284 1.0201-5.7166-0.688-1.0209-2.2392-1.9488-8.7092-5.2094-3.4103-1.7186-4.0816-2.141-5.0512-3.178-2.0806-2.2252-2.0269-4.9821 0.14337-7.3527 1.4133-1.5438 3.3175-2.6635 5.9568-3.5027 2.2914-0.72862 4.3398-0.9627 7.6264-0.87151 3.5507 0.0985 6.2348 0.57679 9.5136 1.6952l1.2091 0.4124-0.88877 2.2244c-0.48882 1.2234-0.90489 2.241-0.92459 2.2613s-0.25079-0.26252-0.51354-0.62838c-0.9463-1.3177-3.0078-2.5034-5.3414-3.0722-1.7663-0.4305-4.6376-0.42354-6.3169 0.0153-2.6117 0.68251-4.756 2.1495-5.5755 3.8144-0.28214 0.57318-0.35628 0.96009-0.35628 1.8593 0 1.0472 0.0356 1.1798 0.45819 1.7054 0.78983 0.98236 1.7629 1.5935 6.2224 3.9078 5.5188 2.8641 6.761 3.8216 7.9791 6.1508 0.43688 0.83536 0.4665 0.99085 0.4665 2.4491 0 1.4002-0.0413 1.6411-0.4096 2.3908-1.569 3.1936-5.5382 5.5817-10.708 6.4426-1.6675 0.2777-5.6681 0.3889-7.345 0.2041z"/>
			<path id="path4345" d="m152.89 1006.3c0.094-0.6548 3.0264-30.139 3.0264-30.429 0-0.19805 0.30385-0.23064 2.1503-0.23064 2.4776 0 2.2803-0.18464 1.9034 1.7814-0.13579 0.70839-0.20462 1.3982-0.15295 1.5328 0.24729 0.64442 1.43 0.12955 4.478-1.9493 2.3352-1.5928 2.9948-1.8622 4.3208-1.765 3.0418 0.22289 5.5854 3.9458 6.8023 9.9557 0.72655 3.5883 0.8717 5.4011 0.87943 10.983 0.006 4.5504-0.20688 9.3152-0.45614 10.195-0.0656 0.2316-0.30153 0.2595-2.1979 0.2595h-2.1244l0.41737-1.0752c1.1537-2.9719 1.5388-5.6228 1.4378-9.8987-0.0947-4.0098-0.46565-6.1065-1.6017-9.0524-0.80341-2.0833-2.4542-4.2079-3.9926-5.1384-1.2607-0.76256-3.4371-1.0128-4.7923-0.55101-0.92757 0.31605-2.0252 1.332-2.5786 2.3869-0.86893 1.6561-1.3871 3.6579-2.1906 8.4632-0.28991 1.7338-0.62927 3.6357-0.75412 4.2264-0.98927 4.6805-1.2201 8.8774-0.579 10.528 0.0931 0.2396-0.0588 0.2595-1.9819 0.2595h-2.0827l0.0692-0.482z"/>
			<path id="path4347" d="m178.69 1007.3c0.0648-0.3587 2.2916-19.77 2.2916-19.976 0-0.1254 3.8552-0.0948 3.8598 0.0306 0.002 0.0612-0.51384 4.6658-1.1469 10.232l-1.151 10.121h-1.9636-1.9636l0.0737-0.4079z"/>
			<path id="path4349" d="m183.75 1018.1c0.17534-1.0121 6.4267-40.361 6.4267-40.453 0-0.18049 1.9061-1.1165 3.4172-1.6782 2.7322-1.0154 5.9142-1.4407 8.6086-1.1506 6.0609 0.65256 11.403 4.0974 13.705 8.8369 1.5916 3.2776 1.6357 6.1715 0.14022 9.1943-2.0362 4.1155-6.7979 7.21-14.007 9.1028-2.828 0.7425-8.4909 1.6486-10.303 1.6486-0.3591 0-0.69912 0.075-0.7556 0.1661-0.0565 0.091-0.47794 3.4114-0.93656 7.3777l-0.83387 7.2116-2.7596 0.04-2.7596 0.04 0.0584-0.3368zm11.32-19.632c9.5919-1.1506 15.916-5.0438 16.774-10.326 0.25927-1.5966-0.34394-3.6516-1.4908-5.0791-2.4195-3.0114-7.5459-4.5368-13.175-3.9205-1.2053 0.13197-3.5966 0.54444-3.6919 0.63684-0.0491 0.0476-1.8262 18.17-1.8262 18.623v0.4398l0.77855-0.076c0.4282-0.042 1.6127-0.1759 2.6322-0.2982z"/>
		</g>
		<g fill="#70c357">
			<path id="path4351" d="m272.43 1067.4c0.19093-0.6439 10.168-37.673 10.312-38.274l0.13864-0.5767h-4.7415c-2.6078 0-4.7393-0.071-4.7366-0.1573 0.003-0.086 0.40634-1.1011 0.89708-2.2545l0.89226-2.0973 4.5032-0.058 4.5032-0.058 2.0105-7.4916 2.0105-7.4917 2.4711-0.059c1.9694-0.047 2.4497 0 2.3657 0.2155-0.1975 0.5147-3.9294 14.4-3.9294 14.62 0 0.1469 1.8327 0.2192 5.5576 0.2192 3.0567 0 5.5576 0.033 5.5576 0.072 0 0.04-0.41057 1.0545-0.91239 2.2545l-0.91239 2.182-5.3268 0.056-5.3268 0.056-5.023 18.609c-2.7626 10.235-5.1527 19.057-5.3112 19.605l-0.28827 0.9962h-2.4102c-2.197 0-2.4005-0.033-2.3013-0.367z"/>
			<path id="path4353" d="m257.34 1067.8c-1.9484-1.1881-2.1645-5.2258-0.60313-11.265 0.39101-1.5124 2.8893-12.602 5.5518-24.643 2.6625-12.042 4.8898-22.059 4.9495-22.261 0.0971-0.3283 0.43892-0.367 3.2403-0.367 2.4029 0 3.1317 0.062 3.1317 0.2681 0 0.249-13.506 57.484-13.757 58.297-0.15632 0.507-1.6633 0.49-2.5135-0.028z"/>
			<path id="path4355" d="m236.7 1058.2c-5.2363-1.3752-9.4221-6.2119-10.832-12.516-0.52347-2.3404-0.46584-6.2984 0.12594-8.6494 0.9072-3.6042 2.5356-6.4429 5.0104-8.7342 2.5247-2.3374 5.0178-3.3201 8.4222-3.3195 3.3102 0.0005 5.9022 1.1026 8.5771 3.6469 3.4489 3.2806 5.3107 7.9188 5.3107 13.23 0 4.0018-0.95229 7.3327-2.979 10.42-1.9552 2.9783-5.3207 5.4071-8.3501 6.026-1.5137 0.3092-3.8908 0.2627-5.2851-0.1035zm3.5776-3.3458c4.235-2.1461 7.4132-9.5748 7.0406-16.457-0.27306-5.0436-2.1265-8.9576-4.8709-10.286-1.3168-0.6375-3.184-0.6284-4.5937 0.022-1.7227 0.7952-3.8662 3.1345-5.0078 5.4654-4.2795 8.7375-2.5292 19.857 3.4335 21.812 0.94784 0.3109 2.7934 0.054 3.9984-0.5567z"/>
			<path id="path4357" d="m202.93 1066.1c0-0.507-3.7602-52.912-3.8823-54.107l-0.12324-1.2059h2.9465 2.9465l0.007 1.1011c0.0116 1.8135 2.2442 44.003 2.3333 44.092 0.0452 0.045 5.7423-10.102 12.66-22.55l12.578-22.633 3.1879-0.01 3.1879-0.01-5.5086 9.5948c-3.0297 5.2771-10.21 17.782-15.955 27.788l-10.447 18.193h-1.9656c-1.4388 0-1.9656-0.071-1.9656-0.2637z"/>
		</g>
		<g fill="#fffe57">
			<path id="path4359" d="m93.995 96.899c-0.14-1.536-0.922-15.966-1.583-29.204-0.228-4.556-0.468-9.11-0.534-10.119l-0.11941-1.8351h0.95128 0.95128l0.0011 0.89132c0.000587 0.49022 0.42493 9.0075 0.94297 18.927 0.51804 9.9198 0.94224 18.58 0.94266 19.245 0.000629 0.96506-0.13024 1.4412-0.64841 2.3594-0.35706 0.63266-0.67779 1.1503-0.71275 1.1503-0.03495 0-0.12141-0.63703-0.19212-1.4156z" transform="translate(113.16 957.02)"/>
			<path id="path4361" d="m91.774 110.37v-0.94374h1.0023 1.0023l15.408-26.843 15.408-26.843 1.512-0.0016 1.512-0.0016-3.9991 6.9732c-2.6788 4.671-4.2166 7.1412-4.6578 7.4821-3.163 2.4434-5.4859 6.2933-6.3346 10.499-0.34844 1.7265-0.60711 2.2114-8.6424 16.201l-8.2832 14.421h-1.9642-1.9642v-0.94375z" transform="translate(113.16 957.02)"/>
			<path id="path4363" d="m120.36 96.374c-0.7855-0.86186-1.5244-2.229-2.0484-3.7898-2.1839-6.5057-0.0146-15.952 4.5949-20.01 1.343-1.1822 2.3006-1.5942 3.9364-1.6939 1.6239-0.09894 2.8067 0.3471 3.8493 1.4515l0.61649 0.65306-0.73403-0.16342c-2.4154-0.53774-4.23 0.12024-6.4263 2.3302-4.3289 4.3557-6.0791 13.338-3.8559 19.788 0.33867 0.98255 0.58901 1.8132 0.55631 1.8459s-0.25265-0.15251-0.48877-0.41159z" transform="translate(113.16 957.02)"/>
			<path id="path4365" d="m125.54 103.22c-1.6674-0.44505-3.5054-1.3576-4.788-2.3774-0.61481-0.48881-1.0769-0.92966-1.0269-0.97969 0.05-0.05002 0.79153 0.24175 1.6478 0.64839 3.2769 1.5562 6.915 1.509 10.249-0.13298 1.4517-0.71494 2.133-1.2315 3.6701-2.7827 2.1625-2.1823 3.2804-4.0759 4.2196-7.1478 0.53577-1.7523 0.57711-2.1504 0.57711-5.5576 0-3.3887-0.0433-3.8115-0.56471-5.5132-0.31059-1.0137-0.9172-2.5237-1.348-3.3555-1.027-1.983-1.0327-2.0013-0.4708-1.5124 1.475 1.2833 3.4361 5.2575 4.1145 8.338 0.4409 2.0021 0.4409 6.069 0 8.0711-1.1474 5.2106-4.1564 9.3911-8.1666 11.346-0.94416 0.46032-2.2168 0.93912-2.828 1.064-1.5215 0.31084-3.8969 0.26211-5.2851-0.10843z" transform="translate(113.16 957.02)"/>
			<path id="path4367" d="m146.28 112.89c-0.48257-0.26229-1.2359-1.153-1.2359-1.4613 0-0.0617 0.33233-0.11224 0.73852-0.11224 0.56454 0 0.78743-0.11116 0.94614-0.47187 0.24309-0.55249 1.2015-4.5584 8.0912-33.818 2.8247-11.996 5.1884-22.023 5.2527-22.283 0.10318-0.41655 0.24945-0.47187 1.2476-0.47187 0.77825 0 1.1307 0.08359 1.1307 0.26815 0 0.24896-13.506 57.484-13.757 58.297-0.142 0.46063-1.6052 0.4928-2.4142 0.0531z" transform="translate(113.16 957.02)"/>
			<path id="path4369" d="m161.27 112.42c0.06-0.20186 0.17093-0.62655 0.24658-0.94375 0.13079-0.54834 0.19839-0.57673 1.3732-0.57673 0.67958 0 1.2356-0.0365 1.2356-0.0812s1.5955-5.9667 3.5455-13.16c1.95-7.1934 4.3269-15.981 5.2819-19.528l1.7364-6.4489 4.3129-0.0018c2.3721-0.001 4.7908-0.05926 5.3749-0.12945l1.062-0.12763 0.49004-1.2337 0.49004-1.2337h1.3316c0.73239 0 1.3316 0.03264 1.3316 0.07254 0 0.03989-0.41057 1.0544-0.91239 2.2545l-0.91239 2.182-5.3268 0.05618-5.3268 0.05618-5.023 18.609c-2.7626 10.235-5.1527 19.057-5.3112 19.605l-0.28827 0.99618h-2.4102c-2.1971 0-2.4005-0.0324-2.3011-0.36701z" transform="translate(113.16 957.02)"/>
			<path id="path4371" d="m176.47 66.72c-0.36195-0.10095-0.18061-0.89733 2.3448-10.298l0.69021-2.5691h1.2396c1.1903 0 1.2336 0.01877 1.0891 0.47187-0.0828 0.25953-0.87608 3.1616-1.7629 6.4489l-1.6124 5.9771-0.82029 0.0329c-0.45116 0.0181-0.97682-0.01076-1.1681-0.06412z" transform="translate(113.16 957.02)"/>
			<path id="path4373" d="m162.24 73.467c0-0.05534 0.15181-0.48002 0.33736-0.94375l0.33735-0.84313h3.3469c3.0892 0 3.3385 0.02825 3.2379 0.36701-0.06 0.20186-0.17093 0.62654-0.24659 0.94375l-0.13755 0.57673h-3.4377c-1.8907 0-3.4377-0.04528-3.4377-0.10062z" transform="translate(113.16 957.02)"/>
		</g>
		<g fill="#70c357">
			<path id="path4393" d="m20.993 51.354c-2.6269-0.28112-7.1032-1.3441-9.267-2.2006-1.03-0.40774-1.0756-0.45749-0.85765-0.93592 0.27795-0.61004 0.28526-0.61035 2.1419-0.09044 5.1255 1.4353 11.242 1.6318 15.533 0.49905 3.5594-0.93973 7.0103-3.253 8.4006-5.6311 0.53724-0.919 0.61246-1.2526 0.61479-2.7264 0.0021-1.3491-0.09203-1.8595-0.47898-2.5958-0.2649-0.50408-0.44433-0.95381-0.39873-0.99941 0.20555-0.20555 2.1167 2.1511 2.5993 3.2051 0.45729 0.99885 0.52114 1.3799 0.43439 2.5923-0.12307 1.7201-0.66024 2.905-1.9229 4.2417-1.8504 1.9588-4.9295 3.5166-8.4095 4.2546-1.6343 0.34656-6.6182 0.57646-8.3889 0.38696z" transform="translate(113.16 957.02)"/>
			<path id="path4395" d="m23.44 28.099c-0.88456-0.82116-0.90834-0.87753-0.90231-2.1388 0.0075-1.5589 0.31223-2.2039 1.6038-3.3945 3.7817-3.4859 11.71-3.3252 15.202 0.30822 0.51906 0.53999 0.84937 0.9418 0.73402 0.8929s-0.64032-0.29303-1.1666-0.5425c-3.1672-1.5014-7.8831-1.4787-10.877 0.05238-2.1935 1.1216-3.3564 2.6249-3.5718 4.6171l-0.11334 1.0486-0.9085-0.84339z" transform="translate(113.16 957.02)"/>
			<path id="path4397" d="m41.231 24.852-0.73402-0.73402 0.71303-1.7302c0.41725-1.0125 0.83575-1.7302 1.0089-1.7302 0.29717 0 0.26286 1.0739-0.12734 3.9847l-0.12651 0.94375-0.73402-0.73402z" transform="translate(113.16 957.02)"/>
			<path id="path4399" d="m41.618 50.858 0.07267-1.0487 0.97594-0.000176 0.97594-0.000178 0.0207-3.6175c0.01979-3.4582 0.07256-3.8962 1.1982-9.9456 0.64762-3.4804 1.4221-7.0667 1.7211-7.9694 0.69656-2.1032 1.6623-3.4384 2.9315-4.0528 1.8887-0.9143 4.8733-0.23241 6.524 1.4905 0.72762 0.75947 0.58179 0.91544-0.45206 0.48347-0.5693-0.23787-1.2472-0.31418-2.2867-0.25742-1.817 0.09921-2.7422 0.64586-3.6584 2.1615-1.1029 1.8245-1.4137 2.9695-2.5626 9.4389-0.34823 1.9609-0.82258 4.6034-1.0541 5.8722-0.48317 2.6479-0.6076 7.0182-0.22541 7.917l0.24525 0.57673-2.2493 0.00013-2.2493 0.00013 0.07267-1.0487z" transform="translate(113.16 957.02)"/>
			<path id="path4401" d="m46.802 21.938c-0.06397-0.1035-0.05684-0.48549 0.01583-0.84887 0.12969-0.64844 0.15198-0.65953 1.203-0.59827 1.4372 0.08376 1.5553 0.57718 0.28532 1.192-1.0034 0.48572-1.3277 0.54074-1.5042 0.25518z" transform="translate(113.16 957.02)"/>
			<path id="path4403" d="m60.218 51.442c0.07964-0.26339 0.22856-0.56855 0.33094-0.67813s0.18615-0.35684 0.18615-0.54946c0-0.26007 0.2456-0.3779 0.95411-0.45776 0.52476-0.05915 0.99975-0.15319 1.0555-0.20898 0.27181-0.27181 0.54192-8.1363 0.43039-12.531-0.17166-6.7638-0.95459-10.992-2.6666-14.399-0.44714-0.89006-0.78029-1.651-0.74033-1.691 0.03996-0.03996 0.55841 0.45884 1.1521 1.1085 1.9219 2.1028 3.225 5.684 4.0399 11.102 0.32511 2.1616 0.36082 14.188 0.05044 16.987l-0.186 1.6778-2.3757 0.05945-2.3757 0.05945 0.14479-0.47889z" transform="translate(113.16 957.02)"/>
			<path id="path4405" d="m67.446 51.907v-1.0486h0.95033c0.57187 0 0.9866-0.1044 1.0414-0.26215 0.0501-0.14418 0.52342-4.1787 1.0518-8.9656 0.52841-4.7869 1.0053-8.9158 1.0598-9.1753 0.08648-0.41202 0.22997-0.47187 1.1313-0.47187 0.56773 0 1.0703 0.07078 1.1168 0.15729 0.08177 0.15218-0.03562 1.2566-1.2092 11.377-0.30096 2.5953-0.65634 5.7804-0.78974 7.0781l-0.24255 2.3594h-2.0549-2.0549v-1.0486z" transform="translate(113.16 957.02)"/>
			<path id="path4407" d="m72.498 62.55c0.09484-0.49022 0.17654-0.95828 0.18156-1.0401 0.005-0.08184 0.78605-0.17622 1.7356-0.20972l1.7265-0.06091 0.77225-6.5826c0.42474-3.6204 0.82808-6.8802 0.89632-7.244l0.12407-0.66137 2.9872-0.35997c5.6477-0.68056 10.454-1.9019 14.083-3.5786 4.9413-2.283 8.2868-6.0333 8.9176-9.9966 0.40214-2.5268-0.50097-5.8286-2.2212-8.1208-0.88519-1.1795-0.15748-0.74012 1.042 0.62916 2.2204 2.5347 3.2914 5.145 3.2914 8.0218 0 3.0996-0.92425 5.2298-3.3174 7.6461-1.7777 1.7948-2.6366 2.3954-5.2812 3.6925-3.593 1.7622-8.0643 2.9472-13.946 3.6962-1.9609 0.24967-3.5779 0.46085-3.5934 0.46928-0.01546 0.0084-0.37367 3.0825-0.796 6.8313s-0.81257 7.0283-0.86719 7.2878c-0.0972 0.46185-0.161 0.47187-3.0033 0.47187h-2.9039l0.17243-0.89132z" transform="translate(113.16 957.02)"/>
			<path id="path4409" d="m78.679 40.138c1.2692-13.266 1.7187-17.221 1.9749-17.379 0.59995-0.37079 4.4094-0.68862 6.9446-0.5794 2.8467 0.12264 4.6513 0.56684 6.6924 1.6473 1.1832 0.62631 2.8589 2.0122 2.6662 2.2049-0.05931 0.05931-0.59544-0.13926-1.1914-0.44126-1.9262-0.97608-4.1989-1.4225-7.2421-1.4226-2.3389-0.000052-4.5201 0.22437-5.7894 0.59565-0.25189 0.07368-0.36946 0.48004-0.4671 1.6145-0.38427 4.4645-1.4408 14.946-1.514 15.019-0.04669 0.04669-0.5658 0.1311-1.1536 0.18758l-1.0687 0.10269 0.14817-1.5486z" transform="translate(113.16 957.02)"/>
			<path id="path4411" d="m31.118 37.672c-1.1265-0.64429-5.6542-2.9889-7.2643-3.7618-0.93679-0.44966-2.0872-1.0796-2.5564-1.3999-0.81029-0.5531-2.3845-2.0698-2.2685-2.1857 0.02991-0.02991 0.51 0.20786 1.0669 0.52838 0.55686 0.32052 2.5473 1.3674 4.4233 2.3264 4.944 2.5274 6.6064 3.5661 7.0578 4.4096 0.21988 0.41085 0.13978 0.42536-0.45868 0.08308z" transform="translate(113.16 957.02)"/>
		</g>
	</g>
</svg>
