<?xml version="1.0" encoding="UTF-8" standalone="no"?>
<!-- Created with Inkscape (http://www.inkscape.org/) -->
<svg id="svg2" xmlns:rdf="http://www.w3.org/1999/02/22-rdf-syntax-ns#" xmlns="http://www.w3.org/2000/svg" height="90" width="90" version="1.1" xmlns:cc="http://creativecommons.org/ns#" xmlns:dc="http://purl.org/dc/elements/1.1/" viewBox="0 0 89.999999 89.999999">
	<metadata id="metadata7">
		<rdf:RDF>
			<cc:Work rdf:about="">
				<dc:format>image/svg+xml</dc:format>
				<dc:type rdf:resource="http://purl.org/dc/dcmitype/StillImage"/>
				<dc:title/>
			</cc:Work>
		</rdf:RDF>
	</metadata>
	<g id="layer1" transform="translate(0 -962.36)">
		<path id="rect6252" d="m90 962.36v90h-90v-90h90zm-21.195 10.581c-2.1409-0.0469-4.2848 0.35593-6.1741 1.227-5.6288 2.5949-9.019 9.1511-7.7939 15.074 0.26799 1.2942 0.5121 2.7251 0.54186 3.1785 0.0383 0.59262-1.5849 2.4994-5.776 6.7873-3.2062 3.2809-12.869 13.166-21.471 21.965l-15.638 15.998 0.0019 1.6359 0.0019 1.636 5.273-0.014 5.273-0.014 12.267-12.486 12.267-12.486 4.2747 4.0782 4.2747 4.0802-0.65063 2.2397c-1.4344 4.9477 0.19612 10.451 4.1718 14.083 3.1991 2.9225 8.0343 4.2818 12.152 3.416l0.0039 0.01c8.8098-1.8521 13.676-11.688 9.8157-19.84-2.8992-6.1223-9.9442-9.3529-16.322-7.4826l-2.1558 0.6329-4.3116-4.0314c-2.3711-2.2176-4.3112-4.1263-4.3136-4.238-0.0012-0.1138 1.8798-2.103 4.1776-4.421l4.1776-4.2146 1.544 0.54328c1.8128 0.6394 5.9152 0.7215 7.9804 0.1598 2.3545-0.64058 5.4298-2.7277 7.1452-4.8515 5.036-6.2343 3.6052-15.737-3.055-20.304-2.1837-1.4972-4.9287-2.3002-7.6813-2.3605zm-45.763 4.1347-5.1759 0.008-5.1739 0.008 0.0078 1.7353c0.007 1.5532 1.2752 3.0074 12.111 13.832 6.659 6.6526 12.233 12.093 12.385 12.093 0.15234 0 1.7596-1.5048 3.5716-3.344h-0.0058l3.2939-3.344-10.507-10.494-10.507-10.494zm45.416 2.6701c1.0251-0.0133 2.094 0.19793 3.1521 0.67776 4.1152 1.8661 5.4261 7.5062 2.5462 10.949-2.0528 2.4544-5.8699 3.3723-8.5047 2.045-2.0426-1.029-3.2698-2.4667-3.8727-4.534-1.4047-4.8169 2.237-9.0808 6.6791-9.1381zm-20.77 26.861c0.82543 0.057 1.5714 0.6632 1.5732 1.6944 0.0092 2.0241-2.1141 2.7062-3.2104 1.0341-0.45788-0.6981-0.50364-1.0942-0.1981-1.669 0.34187-0.6432 0.90588-0.9797 1.478-1.0498 0.11919-0.015 0.23944-0.018 0.35736-0.01zm21.311 15.812c1.3369 0 2.6725 0.2945 3.6474 0.8959 4.7609 2.9505 4.4354 10.173-0.571 12.659-1.4558 0.7228-4.3675 0.7706-5.9799 0.098v0.01c-1.6686-0.6961-3.5301-2.9186-4.0591-4.8475-0.80026-2.9175 0.56875-6.1799 3.3114-7.8916 0.97624-0.6094 2.3144-0.9151 3.6513-0.9193z" fill="#777"/>
		<path id="path4-3" fill="none" d="m-289.7 937.02 64.433 0.50375-0.50375 64.433-64.433-0.5038z"/>
		<g font-size="22.5px" font-family="monospace" fill="#000000">
			<text id="text4533" style="word-spacing:0px;letter-spacing:0px" line-height="125%" y="1006.4628" x="14.295303" xml:space="preserve"><tspan id="tspan4535" y="1006.4628" x="14.295303"/></text>
			<text id="text4525" style="word-spacing:0px;letter-spacing:0px" line-height="125%" y="1006.4628" x="46.295303" xml:space="preserve"><tspan id="tspan4527" y="1006.4628" x="46.295303"/></text>
			<text id="text4521" style="word-spacing:0px;letter-spacing:0px" xml:space="preserve" line-height="125%" y="1006.4628" x="62.295303"><tspan id="tspan4523" x="62.295303" y="1006.4628"/></text>
			<text id="text4549" style="word-spacing:0px;letter-spacing:0px" line-height="125%" y="1020.4628" x="62.295303" xml:space="preserve"><tspan id="tspan4551" y="1020.4628" x="62.295303"/></text>
			<text id="text4529" style="word-spacing:0px;letter-spacing:0px" xml:space="preserve" line-height="125%" y="1006.4628" x="30.295303"><tspan id="tspan4531" x="30.295303" y="1006.4628"/></text>
			<text id="text4541" style="word-spacing:0px;letter-spacing:0px" line-height="125%" y="1020.4628" x="30.295303" xml:space="preserve"><tspan id="tspan4543" y="1020.4628" x="30.295303"/></text>
			<text id="text4537" style="word-spacing:0px;letter-spacing:0px" xml:space="preserve" line-height="125%" y="1020.4628" x="14.295303"><tspan id="tspan4539" x="14.295303" y="1020.4628"/></text>
			<text id="text4545" style="word-spacing:0px;letter-spacing:0px" xml:space="preserve" line-height="125%" y="1020.4628" x="46.295303"><tspan id="tspan4547" x="46.295303" y="1020.4628"/></text>
		</g>
		<g>
			<path id="text4553" d="m38.051 0.20703l-0.85 4.2754h5.285l0.834-4.2754-5.269 0.00003zm-26.955 5.3809c-2.5669 0-4.5442 0.4929-5.93 1.4785-1.376 0.9856-2.0625 2.39-2.0625 4.2146 0 1.347 0.399 2.401 1.1992 3.162 0.8003 0.762 2.1381 1.339 4.0118 1.729l0.9511 0.176c0.9764 0.205 1.6194 0.404 1.9314 0.599 0.313 0.195 0.469 0.469 0.469 0.821 0 0.507-0.278 0.892-0.834 1.156-0.556 0.263-1.3855 0.394-2.4882 0.394-1.1321 0-2.241-0.14-3.3243-0.423-1.0734-0.283-2.0827-0.704-3.0293-1.26l-0.791 4.113c1.2199 0.351 2.4149 0.615 3.586 0.791 1.171 0.176 2.3191 0.264 3.4414 0.264 2.6834 0 4.7704-0.532 6.2634-1.596 1.493-1.073 2.24-2.562 2.24-4.465 0-1.259-0.424-2.239-1.273-2.941-0.849-0.713-2.332-1.294-4.449-1.742l-0.951-0.176c-0.9177-0.195-1.5338-0.381-1.8461-0.557-0.3122-0.175-0.4687-0.41-0.4687-0.703 0-0.498 0.2797-0.8771 0.8359-1.1406 0.566-0.2732 1.366-0.4101 2.4009-0.4101 0.907 0 1.867 0.1271 2.882 0.3808 1.015 0.2538 2.036 0.6239 3.061 1.1109l0.775-4.0679c-1.102-0.3025-2.2-0.5275-3.293-0.6738-1.083-0.1562-2.186-0.2344-3.308-0.2344zm19.166 0.5137c-1.064 0-2.083 0.2288-3.059 0.6875-0.976 0.4586-1.948 1.1627-2.914 2.1093l0.484-2.4023h-5.269l-3.192 16.397h5.254l1.582-8.067c0.303-1.493 0.839-2.659 1.61-3.498 0.781-0.849 1.713-1.273 2.797-1.273 0.634 0 1.121 0.17 1.463 0.511 0.351 0.342 0.527 0.825 0.527 1.45 0 0.224-0.035 0.531-0.104 0.922-0.058 0.38-0.144 0.85-0.261 1.406l-1.655 8.549h5.254l1.948-9.985c0.087-0.449 0.152-0.863 0.191-1.244 0.049-0.381 0.072-0.727 0.072-1.039 0-1.4345-0.41-2.5474-1.23-3.3379s-1.986-1.1855-3.498-1.1855zm23.347 0.205c-1.044 0-2.006 0.2308-2.884 0.6895-0.879 0.4489-1.718 1.1511-2.518 2.1074l0.482-2.4004h-5.269l-4.406 22.629h5.271l1.682-8.605c0.537 0.956 1.196 1.662 1.976 2.121 0.791 0.449 1.747 0.673 2.869 0.673 1.279 0 2.474-0.316 3.586-0.951 1.123-0.634 2.128-1.567 3.016-2.797 0.703-0.975 1.241-2.057 1.611-3.248 0.381-1.19 0.571-2.417 0.571-3.675 0-2.02-0.536-3.6145-1.61-4.7855-1.073-1.1711-2.532-1.7579-4.377-1.7579zm-16.787 0.2832l-3.191 16.394h5.254l3.207-16.394-5.27-0.0002zm14.649 3.5232c0.878 0 1.547 0.264 2.006 0.791 0.468 0.518 0.703 1.272 0.703 2.268 0 1.913-0.431 3.485-1.289 4.715-0.859 1.22-1.947 1.828-3.264 1.828-0.859 0-1.532-0.252-2.02-0.76-0.478-0.517-0.716-1.225-0.716-2.123 0-1.991 0.424-3.606 1.273-4.846 0.859-1.249 1.96-1.873 3.307-1.873zm19.916 56.866l-4.42 22.777h5.254l4.435-22.777h-5.269zm8.158 1.726l-0.908 4.656h-2.606l-0.717 3.746h2.577l-1.346 6.954c-0.059 0.322-0.104 0.64-0.133 0.953-0.029 0.312-0.043 0.603-0.043 0.877 0 1.249 0.415 2.205 1.244 2.869 0.83 0.663 2.035 0.996 3.616 0.996h4.406l0.746-3.748h-2.707c-0.703 0-1.205-0.098-1.508-0.293-0.293-0.195-0.439-0.516-0.439-0.965 0-0.098 0.003-0.201 0.013-0.309 0.02-0.107 0.049-0.238 0.088-0.394l1.348-6.94h5.357l0.746-3.746h-5.357l0.892-4.656h-5.269zm-19.066 3.803c-1.669 0-3.181 0.291-4.538 0.877-1.356 0.585-2.532 1.454-3.527 2.605-0.839 0.966-1.479 2.03-1.918 3.192-0.439 1.171-0.66 2.376-0.66 3.615 0 2.137 0.698 3.827 2.094 5.066 1.395 1.24 3.314 1.858 5.754 1.858 1.639 0 3.137-0.292 4.494-0.877 1.346-0.586 2.506-1.444 3.482-2.576 0.839-0.976 1.485-2.056 1.934-3.237 0.449-1.171 0.672-2.37 0.672-3.599 0-2.138-0.693-3.827-2.078-5.067-1.396-1.239-3.299-1.857-5.709-1.857zm-25.479 0.496l3.266 16.396h5.546l9.633-16.396h-5.314l-6.178 11.447-2.121-11.447h-4.832zm24.996 3.25c0.908 0 1.6 0.268 2.078 0.805 0.469 0.546 0.703 1.338 0.703 2.373 0 1.903-0.44 3.467-1.318 4.697s-1.995 1.846-3.352 1.846c-0.907 0-1.596-0.268-2.064-0.805-0.478-0.537-0.717-1.319-0.717-2.344 0-1.913 0.44-3.487 1.319-4.726 0.878-1.23 1.995-1.846 3.351-1.846z" transform="translate(0 962.36)"/>
			<path id="path6" d="m16.99 989.99 17.896 17.458-4.7612 4.881 14.642 14.283-30.632-7.6563 6.3482-6.5076-19.363-6.189z" fill="#ffd700"/>
			<flowRoot id="flowRoot6262" style="word-spacing:0px;letter-spacing:0px" xml:space="preserve" font-size="40px" line-height="125%" font-family="Sans" fill="black"><flowRegion id="flowRegion6264"><rect id="rect6266" y="50.706" width="118.45" x="-25.057" height="45.559"/></flowRegion><flowPara id="flowPara6268"/></flowRoot>
		</g>
	</g>
</svg>
