<?xml version="1.0" encoding="UTF-8" standalone="no"?>
<!-- Created with Inkscape (http://www.inkscape.org/) -->
<svg id="svg2" xmlns:rdf="http://www.w3.org/1999/02/22-rdf-syntax-ns#" xmlns="http://www.w3.org/2000/svg" height="111.32" width="113.12" version="1.1" xmlns:cc="http://creativecommons.org/ns#" xmlns:dc="http://purl.org/dc/elements/1.1/" viewBox="0 0 113.12124 111.32162">
	<metadata id="metadata7">
		<rdf:RDF>
			<cc:Work rdf:about="">
				<dc:format>image/svg+xml</dc:format>
				<dc:type rdf:resource="http://purl.org/dc/dcmitype/StillImage"/>
				<dc:title/>
			</cc:Work>
		</rdf:RDF>
	</metadata>
	<g id="layer1" transform="translate(-155.26 -958.22)">
		<rect id="rect4481" fill-opacity=".90196" rx="18.719" ry="18.719" height="100" width="100" y="963.73" x="161.07" fill="#cfe573"/>
		<g>
			<path id="path4236" d="m155.88 1059 8.2281 9.7513 16.526-22.726 8.8108 7.8421 22.753-34.198-0.0535-0.1464-23.483 22.762-8.1923-7.203z" stroke-opacity=".98676" stroke="#fff" stroke-linecap="round" stroke-width=".91618" fill="#ffd42a"/>
			<g>
				<path id="path4357" d="m213.48 1057.7c0-0.507-3.7602-52.912-3.8823-54.107l-0.12324-1.2059h2.9465 2.9465l0.007 1.1011c0.0116 1.8135 2.2442 44.003 2.3333 44.092 0.0452 0.045 5.7423-10.102 12.66-22.55l12.578-22.633 3.1879-0.01 3.1879-0.01-5.5086 9.5949c-3.0297 5.2771-10.21 17.782-15.955 27.788l-10.447 18.193h-1.9656c-1.4388 0-1.9656-0.071-1.9656-0.2637z" fill="#70c357"/>
				<path id="path4343" d="m180.48 1019.2c-2.4653-0.2716-6.1316-0.9701-8.6311-1.6445-2.2721-0.613-5.6263-1.7487-5.8843-1.9926-0.0914-0.086 0.48607-1.6153 1.2833-3.3979l1.4495-3.241 0.81228 1.0277c0.98423 1.2451 3.0948 2.7857 4.9992 3.6493 7.589 3.4408 18.08 1.9973 22.769-3.1332 2.4477-2.6783 3.0417-6.0071 1.4843-8.3183-1.0011-1.4853-3.2581-2.8354-12.672-7.5797-4.9622-2.5008-5.9389-3.1153-7.3499-4.6242-3.0274-3.2378-2.9492-7.2493 0.20862-10.699 2.0564-2.2463 4.8271-3.8755 8.6675-5.0967 3.3341-1.0602 6.3147-1.4008 11.097-1.2681 5.1664 0.14333 9.072 0.83927 13.843 2.4665l1.7593 0.60007-1.2932 3.2367c-0.71126 1.7802-1.3167 3.2608-1.3453 3.2903-0.0287 0.0295-0.36491-0.38198-0.74722-0.91433-1.3769-1.9173-4.3766-3.6426-7.772-4.4702-2.5701-0.6264-6.748-0.61627-9.1915 0.0222-3.8002 0.99309-6.9203 3.1277-8.1127 5.5502-0.41053 0.83402-0.5184 1.397-0.5184 2.7054 0 1.5237 0.0518 1.7168 0.66669 2.4814 1.1492 1.4294 2.5651 2.3186 9.0539 5.6861 8.0301 4.1673 9.8376 5.5606 11.61 8.9498 0.63568 1.2153 0.67878 1.4416 0.67878 3.5635 0 2.0374-0.0601 2.3879-0.596 3.4788-2.283 4.6469-8.0583 8.1216-15.581 9.3743-2.4263 0.4041-8.2474 0.5659-10.687 0.297z" fill="#70c357"/>
				<path id="path4359" d="m217.7 1045.5c-0.13945-1.5356-0.92179-15.966-1.5832-29.204-0.22766-4.5562-0.46766-9.1097-0.53334-10.119l-0.11942-1.8351h0.95129 0.95128l0.001 0.8913c0.00059 0.4903 0.42493 9.0076 0.94297 18.927 0.51804 9.9198 0.94224 18.58 0.94266 19.245 0.00063 0.9651-0.13024 1.4412-0.6484 2.3594-0.35706 0.6326-0.6778 1.1503-0.71275 1.1503-0.0349 0-0.12141-0.6371-0.19213-1.4156z" fill="#fffe57"/>
			</g>
			<path id="rect4216" d="m267.72 968.15-9.8674-9.1626-14.404 25.922-10.233-7.0877-19.46 38.737 0.0744 0.147 21.688-26.85 9.5038 6.4976z" stroke="#fff" stroke-linecap="round" stroke-width=".96691" fill="#fc0"/>
		</g>
		<g fill="#fffe57">
			<path id="path4393" d="m183.33 1022.3c-3.8223-0.4091-10.336-1.9558-13.484-3.2021-1.4988-0.5933-1.5651-0.6657-1.248-1.3617 0.40445-0.8878 0.41507-0.8882 3.1166-0.131 7.4579 2.0884 16.358 2.3745 22.601 0.7262 5.1791-1.3673 10.2-4.7332 12.223-8.1935 0.78173-1.3374 0.89119-1.8227 0.89456-3.9672 0.003-1.9632-0.13386-2.7057-0.69694-3.777-0.38545-0.7335-0.64653-1.3879-0.58017-1.4542 0.29909-0.2992 3.0799 3.1299 3.7821 4.6635 0.66539 1.4535 0.75828 2.0078 0.63205 3.7721-0.17907 2.5028-0.96068 4.227-2.7979 6.1719-2.6924 2.8502-7.1727 5.1168-12.236 6.1905-2.378 0.5043-9.6298 0.8389-12.206 0.5632z"/>
			<path id="path4395" d="m186.89 988.46c-1.2871-1.1948-1.3217-1.2769-1.3129-3.1121 0.0117-2.2682 0.45431-3.2068 2.3337-4.9391 5.5027-5.0722 17.038-4.8383 22.12 0.44847 0.75526 0.78573 1.2359 1.3704 1.068 1.2992-0.16784-0.0711-0.9317-0.42636-1.6975-0.78938-4.6085-2.1846-11.47-2.1516-15.827 0.0762-3.1917 1.632-4.8838 3.8193-5.1971 6.7181l-0.16493 1.5258-1.3219-1.2272z"/>
			<path id="path4397" d="m212.78 983.74-1.068-1.068 1.0375-2.5176c0.60714-1.4732 1.2161-2.5175 1.468-2.5175 0.43241 0 0.38247 1.5625-0.18529 5.798l-0.18407 1.3732-1.068-1.068z"/>
			<path id="path4475" d="m215.35 1059.6c-0.0444-0.2221-0.0808-0.6875-0.0808-1.0341v-0.6301h1.0676 1.0676l15.437-26.887 15.437-26.887h1.5918c0.87552 0 1.5918 0.033 1.5918 0.074 0 0.059-26.822 46.891-30.921 53.991l-1.0263 1.7774h-2.0423-2.0423l-0.0808-0.404z"/>
			<path id="path4411" d="m198.06 1002.4c-1.6391-0.9375-8.2272-4.349-10.57-5.4736-1.3631-0.65434-3.037-1.571-3.7197-2.0369-1.179-0.8048-3.4695-3.0118-3.3008-3.1804 0.0435-0.0435 0.74206 0.30243 1.5523 0.7688 0.81026 0.46635 3.7065 1.9896 6.4361 3.385 7.1937 3.6776 9.6128 5.189 10.27 6.4161 0.31994 0.5977 0.2034 0.6189-0.66741 0.1208z"/>
		</g>
	</g>
</svg>
