<?xml version="1.0" encoding="UTF-8" standalone="no"?>
<!-- Created with Inkscape (http://www.inkscape.org/) -->
<svg id="svg2" xmlns:rdf="http://www.w3.org/1999/02/22-rdf-syntax-ns#" xmlns="http://www.w3.org/2000/svg" height="90" width="90" version="1.1" xmlns:cc="http://creativecommons.org/ns#" xmlns:dc="http://purl.org/dc/elements/1.1/" viewBox="0 0 89.999999 89.999999">
	<metadata id="metadata7">
		<rdf:RDF>
			<cc:Work rdf:about="">
				<dc:format>image/svg+xml</dc:format>
				<dc:type rdf:resource="http://purl.org/dc/dcmitype/StillImage"/>
				<dc:title/>
			</cc:Work>
		</rdf:RDF>
	</metadata>
	<g id="layer1" transform="translate(0 -962.36)">
		<path id="rect6252" d="m0 962.36v90h90v-90h-90zm21.195 10.581c2.1409-0.0469 4.2848 0.35593 6.1741 1.227 5.6288 2.5949 9.019 9.1511 7.7939 15.074-0.26799 1.2942-0.5121 2.7251-0.54186 3.1785-0.0383 0.59262 1.5849 2.4994 5.776 6.7873 3.2062 3.2809 12.869 13.166 21.471 21.965l15.638 15.998-0.0019 1.6359-0.0019 1.636-5.273-0.014-5.273-0.014-12.267-12.486-12.267-12.486-4.2747 4.0782-4.2747 4.0802 0.65063 2.2397c1.4344 4.9477-0.19612 10.451-4.1718 14.083-3.1991 2.9225-8.0343 4.2818-12.152 3.416l-0.0039 0.01c-8.8098-1.8521-13.676-11.688-9.8157-19.84 2.8992-6.1223 9.9442-9.3529 16.322-7.4826l2.1558 0.6329 4.3116-4.0314c2.3711-2.2176 4.3112-4.1263 4.3136-4.238 0.0012-0.1138-1.8798-2.103-4.1776-4.421l-4.1776-4.2146-1.544 0.54328c-1.8128 0.6394-5.9152 0.7215-7.9804 0.1598-2.3545-0.64058-5.4298-2.7277-7.1452-4.8515-5.036-6.2343-3.6052-15.737 3.055-20.304 2.1837-1.4972 4.9287-2.3002 7.6813-2.3605zm45.763 4.1347 5.1759 0.008 5.1739 0.008-0.0078 1.7353c-0.007 1.5532-1.2752 3.0074-12.111 13.832-6.659 6.6526-12.233 12.093-12.385 12.093-0.15234 0-1.7596-1.5048-3.5716-3.344h0.0058l-3.2939-3.344 10.507-10.494 10.507-10.494zm-45.416 2.6701c-1.0251-0.0133-2.094 0.19793-3.1521 0.67776-4.1152 1.8661-5.4261 7.5062-2.5462 10.949 2.0528 2.4544 5.8699 3.3723 8.5047 2.045 2.0426-1.029 3.2698-2.4667 3.8727-4.534 1.4047-4.8169-2.237-9.0808-6.6791-9.1381zm20.77 26.861c-0.82543 0.057-1.5714 0.6632-1.5732 1.6944-0.0092 2.0241 2.1141 2.7062 3.2104 1.0341 0.45788-0.6981 0.50364-1.0942 0.1981-1.669-0.34187-0.6432-0.90588-0.9797-1.478-1.0498-0.11919-0.015-0.23944-0.018-0.35736-0.01zm-21.311 15.812c-1.3369 0-2.6725 0.2945-3.6474 0.8959-4.7609 2.9505-4.4354 10.173 0.571 12.659 1.4558 0.7228 4.3675 0.7706 5.9799 0.098v0.01c1.6686-0.6961 3.5301-2.9186 4.0591-4.8475 0.80026-2.9175-0.56875-6.1799-3.3114-7.8916-0.97624-0.6094-2.3144-0.9151-3.6513-0.9193z" fill="#777"/>
		<path id="path4-3" fill="none" d="m-289.7 937.02 64.433 0.50375-0.50375 64.433-64.433-0.5038z"/>
		<g font-size="22.5px" font-family="monospace" fill="#000000">
			<text id="text4533" style="word-spacing:0px;letter-spacing:0px" line-height="125%" y="1006.4628" x="14.295303" xml:space="preserve"><tspan id="tspan4535" y="1006.4628" x="14.295303"/></text>
			<text id="text4525" style="word-spacing:0px;letter-spacing:0px" line-height="125%" y="1006.4628" x="46.295303" xml:space="preserve"><tspan id="tspan4527" y="1006.4628" x="46.295303"/></text>
			<text id="text4521" style="word-spacing:0px;letter-spacing:0px" xml:space="preserve" line-height="125%" y="1006.4628" x="62.295303"><tspan id="tspan4523" x="62.295303" y="1006.4628"/></text>
			<text id="text4549" style="word-spacing:0px;letter-spacing:0px" line-height="125%" y="1020.4628" x="62.295303" xml:space="preserve"><tspan id="tspan4551" y="1020.4628" x="62.295303"/></text>
			<text id="text4529" style="word-spacing:0px;letter-spacing:0px" xml:space="preserve" line-height="125%" y="1006.4628" x="30.295303"><tspan id="tspan4531" x="30.295303" y="1006.4628"/></text>
			<text id="text4541" style="word-spacing:0px;letter-spacing:0px" line-height="125%" y="1020.4628" x="30.295303" xml:space="preserve"><tspan id="tspan4543" y="1020.4628" x="30.295303"/></text>
			<text id="text4537" style="word-spacing:0px;letter-spacing:0px" xml:space="preserve" line-height="125%" y="1020.4628" x="14.295303"><tspan id="tspan4539" x="14.295303" y="1020.4628"/></text>
			<text id="text4545" style="word-spacing:0px;letter-spacing:0px" xml:space="preserve" line-height="125%" y="1020.4628" x="46.295303"><tspan id="tspan4547" x="46.295303" y="1020.4628"/></text>
		</g>
		<path id="path6" d="m73.01 989.99-17.896 17.458 4.7612 4.881-14.642 14.283 30.632-7.6563-6.3482-6.5076 19.363-6.189z" fill="#ffd700"/>
		<flowRoot id="flowRoot6262" style="word-spacing:0px;letter-spacing:0px" xml:space="preserve" font-size="40px" line-height="125%" font-family="Sans" fill="black"><flowRegion id="flowRegion6264"><rect id="rect6266" y="50.706" width="118.45" x="-25.057" height="45.559"/></flowRegion><flowPara id="flowPara6268"/></flowRoot>
	</g>
</svg>
